<svg viewBox="0 0 800 1000" xmlns="http://www.w3.org/2000/svg" role="img" aria-label="선풍기">
  <rect width="800" height="1000" fill="#E9F0EC"/>
  <g stroke="#14110E" stroke-width="9" fill="none" stroke-linecap="round" stroke-linejoin="round">
    <!-- base -->
    <ellipse cx="400" cy="880" rx="150" ry="34" fill="#14110E" stroke="none"/>
    <path d="M400 470 L400 856"/>
    <rect x="356" y="844" width="88" height="24" rx="12" fill="#14110E" stroke="none"/>
    <!-- cage -->
    <circle cx="400" cy="360" r="250" fill="#FBFBF7"/>
    <circle cx="400" cy="360" r="250"/>
    <circle cx="400" cy="360" r="186"/>
    <circle cx="400" cy="360" r="120"/>
    <g stroke-width="6">
      <path d="M400 110 L400 610"/>
      <path d="M150 360 L650 360"/>
      <path d="M223 183 L577 537"/>
      <path d="M577 183 L223 537"/>
    </g>
  </g>
  <!-- blades -->
  <g transform="translate(400 360)" fill="#F2A65A" stroke="#14110E" stroke-width="7" stroke-linejoin="round">
    <g>
      <path d="M0 0 C 60 -120 130 -120 95 -20 C 60 -8 22 -6 0 0 Z"/>
    </g>
    <g transform="rotate(120)">
      <path d="M0 0 C 60 -120 130 -120 95 -20 C 60 -8 22 -6 0 0 Z"/>
    </g>
    <g transform="rotate(240)">
      <path d="M0 0 C 60 -120 130 -120 95 -20 C 60 -8 22 -6 0 0 Z"/>
    </g>
    <circle cx="0" cy="0" r="34" fill="#14110E" stroke="none"/>
    <circle cx="0" cy="0" r="13" fill="#FBFBF7" stroke="none"/>
  </g>
</svg>
